{"title":"Sharknado 2013 TVRip XviD-SiFi","uid":8682811,"size":734163063,"categoryP":"video","categoryS":"movies","magnet":"?xt=urn:btih:4f3e006849398edff8c88db13042eb97a8d04c1d&amp;dn=Sharknado+2013+TVRip+XviD-SiFi&amp;tr=udp%3A%2F%2Ftracker.openbittorrent.com%3A80&amp;tr=udp%3A%2F%2Fopen.demonii.com%3A1337&amp;tr=udp%3A%2F%2Ftracker.coppersurfer.tk%3A6969&amp;tr=udp%3A%2F%2Fexodus.desync.com%3A6969","seeders":1,"leechers":0,"uploader":"ValidusVyto","files":-1,"time":1373737016,"description":"_______ Visit us at our Semi Public Bittorrent Community ________\n   &lt;a href=&quot;\nhttp://p2pdl.com&quot; rel=&quot;nofollow&quot; target=&quot;_NEW&quot;&gt;\nhttp://p2pdl.com&lt;/a&gt;  _____________________________ &lt;a href=&quot; http://p2pdl.com&quot; rel=&quot;nofollow&quot; target=&quot;_NEW&quot;&gt; http://p2pdl.com&lt;/a&gt;\n\nSharknado 2013 TVRip XviD-SiFi\n &lt;a href=&quot;\nhttp://www.imdb.com/title/tt2724064/&quot; rel=&quot;nofollow&quot; target=&quot;_NEW&quot;&gt;\nhttp://www.imdb.com/title/tt2724064/&lt;/a&gt;\n\n\nGeneral\nFormat                                   : AVI\nFormat/Info                              : Audio Video Interleave\nFile size                                : 700 MiB\nDuration                                 : 1h 25mn\nOverall bit rate mode                    : Variable\nOverall bit rate                         : 1 139 Kbps\nWriting application                      : VirtualDubMod 1.5.4.1 (build 2178/release)\n\nVideo\nCodec ID                                 : XVID\nDuration                                 : 1h 25mn\nBit rate                                 : 1 022 Kbps\nWidth                                    : 608 pixels\nHeight                                   : 352 pixels\nDisplay aspect ratio                     : 1.727\nFrame rate                               : 23.976 fps\nColor space                              : YUV\nChroma subsampling                       : 4:2:0\nBit depth                                : 8 bits\nScan type                                : Progressive\nCompression mode                         : Lossy\nBits/(Pixel*Frame)                       : 0.199\nStream size                              : 629 MiB (90%)\nWriting library                          : XviD 1.2.1 (UTC 2008-12-04)\n\nAudio\nFormat                                   : MPEG Audio\nFormat profile                           : Layer 3\nMode                                     : Joint stereo\nCodec ID/Hint                            : MP3\nDuration                                 : 1h 25mn\nBit rate mode                            : Variable\nBit rate                                 : 104 Kbps\nChannel(s)                               : 2 channels\nSampling rate                            : 48.0 KHz\nStream size                              : 63.8 MiB (9%)\n &lt;a href=&quot;\nhttp://ultraimg.com/images/nAhBm.png&quot; rel=&quot;nofollow&quot; target=&quot;_NEW&quot;&gt;\nhttp://ultraimg.com/images/nAhBm.png&lt;/a&gt; &lt;a href=&quot;\nhttp://ultraimg.com/images/VEb1o.png&quot; rel=&quot;nofollow&quot; target=&quot;_NEW&quot;&gt;\nhttp://ultraimg.com/images/VEb1o.png&lt;/a&gt; &lt;a href=&quot;\nhttp://ultraimg.com/images/2Zhp.png&quot; rel=&quot;nofollow&quot; target=&quot;_NEW&quot;&gt;\nhttp://ultraimg.com/images/2Zhp.png&lt;/a&gt; &lt;a href=&quot;\nhttp://ultraimg.com/images/ytQs.png&quot; rel=&quot;nofollow&quot; target=&quot;_NEW&quot;&gt;\nhttp://ultraimg.com/images/ytQs.png&lt;/a&gt;","torrent":{"xt":"urn:btih:4f3e006849398edff8c88db13042eb97a8d04c1d","amp;dn":"Sharknado+2013+TVRip+XviD-SiFi","amp;tr":["udp%3A%2F%2Ftracker.openbittorrent.com%3A80","udp%3A%2F%2Fopen.demonii.com%3A1337","udp%3A%2F%2Ftracker.coppersurfer.tk%3A6969","udp%3A%2F%2Fexodus.desync.com%3A6969"],"infoHash":"4f3e006849398edff8c88db13042eb97a8d04c1d","infoHashBuffer":{"type":"Buffer","data":[79,62,0,104,73,57,142,223,248,200,141,177,48,66,235,151,168,208,76,29]},"announce":[],"urlList":[]}}